<svg width="91" height="100" viewBox="0 0 91 100" fill="none" xmlns="http://www.w3.org/2000/svg">
<ellipse cx="45.5796" cy="50" rx="44.6893" ry="50" fill="#D1A954"/>
<g clip-path="url(#clip0_12_18)">
<path d="M58.8228 63.0494L51.0336 54.3346C52.511 52.2939 53.4003 49.6996 53.4003 46.875C53.4003 40.3272 48.6389 35 42.7865 35C36.9342 35 32.1729 40.3272 32.1729 46.875C32.1729 53.4229 36.9342 58.7501 42.7866 58.7501C45.3112 58.7501 47.6299 57.755 49.4538 56.1022L57.243 64.817C57.4612 65.061 57.8148 65.061 58.033 64.817L58.8228 63.9332C59.0409 63.6891 59.0409 63.2934 58.8228 63.0494ZM42.7866 56.2501C38.166 56.2501 34.4073 52.0447 34.4073 46.875C34.4073 41.7054 38.166 37.5 42.7866 37.5C47.4072 37.5 51.1658 41.7054 51.1658 46.875C51.1658 52.0447 47.4072 56.2501 42.7866 56.2501Z" fill="white"/>
</g>
<defs>
<clipPath id="clip0_12_18">
<rect width="26.8136" height="30" fill="white" transform="translate(32.1729 35)"/>
</clipPath>
</defs>
</svg>
