<svg width="0" height="0" xmlns="http://www.w3.org/2000/svg">
<symbol id="instagramIcon" viewBox="0 0 width heght"><g fill="inherit" fill-opacity=".6" clip-path="url(#a)"><path d="M17.875 0h-9.75A8.126 8.126 0 0 0 0 8.125v9.75A8.126 8.126 0 0 0 8.125 26h9.75A8.126 8.126 0 0 0 26 17.875v-9.75A8.126 8.126 0 0 0 17.875 0Zm5.688 17.875a5.694 5.694 0 0 1-5.688 5.688h-9.75a5.694 5.694 0 0 1-5.688-5.688v-9.75a5.694 5.694 0 0 1 5.688-5.688h9.75a5.694 5.694 0 0 1 5.688 5.688v9.75Z"/><path d="M13 6.5a6.5 6.5 0 1 0 0 13 6.5 6.5 0 0 0 0-13Zm0 10.563A4.068 4.068 0 0 1 8.937 13 4.067 4.067 0 0 1 13 8.937 4.067 4.067 0 0 1 17.063 13 4.068 4.068 0 0 1 13 17.063ZM19.985 6.879a.866.866 0 1 0 0-1.732.866.866 0 0 0 0 1.732Z"/></g><defs><clipPath id="a"><path fill="#fff" d="M0 0h26v26H0z"/></clipPath></defs></symbol>
</svg>
